# MagicaVoxel @ Ephtracy

# group
o 

# material
mtllib HungerHead.mtl
usemtl palette

# normals
vn -1 0 0
vn 1 0 0
vn 0 0 1
vn 0 0 -1
vn 0 -1 0
vn 0 1 0

# texcoords
vt 0.857422 0.5
vt 0.865234 0.5
vt 0.958984 0.5
vt 0.962891 0.5
vt 0.994141 0.5

# verts
v -0.5 0 0.5
v -0.5 0 -0.5
v -0.5 0.9 0.7
v -0.5 0.9 0.5
v -0.5 1 0.6
v -0.5 1 0.5
v -0.5 1 0.4
v -0.5 1 0
v -0.5 1 -0.5
v -0.5 1.1 0.7
v -0.5 1.1 0.6
v -0.5 1.1 0
v -0.5 1.1 -0.1
v -0.5 1.3 0.4
v -0.5 1.3 0.3
v -0.5 1.3 -0.1
v -0.5 1.3 -0.2
v -0.5 1.4 -0.2
v -0.5 1.4 -0.3
v -0.5 1.5 0.3
v -0.5 1.5 0.2
v -0.5 1.5 -0.3
v -0.5 1.5 -0.6
v -0.5 1.6 0.2
v -0.5 1.6 0.1
v -0.5 1.6 -0.6
v -0.5 1.6 -0.7
v -0.5 1.7 0.1
v -0.5 1.7 -0.1
v -0.5 1.7 -0.6
v -0.5 1.7 -0.7
v -0.5 1.8 -0.1
v -0.5 1.8 -0.6
v -0.2 1 0.3
v -0.2 1 0.1
v -0.2 1.3 0.3
v -0.2 1.3 0.2
v -0.2 1.3 0.1
v -0.2 1.3 0
v -0.2 1.5 0.2
v -0.2 1.5 0.1
v -0.2 1.5 0
v -0.2 1.5 -0.1
v -0.2 1.6 0.1
v -0.2 1.6 -0.1
v -0.2 1.6 -0.2
v -0.2 1.7 -0.1
v -0.2 1.7 -0.2
v 0.1 1 0.4
v 0.1 1 0
v 0.1 1.1 0
v 0.1 1.1 -0.1
v 0.1 1.3 0.4
v 0.1 1.3 0.3
v 0.1 1.3 -0.1
v 0.1 1.3 -0.2
v 0.1 1.4 -0.2
v 0.1 1.4 -0.3
v 0.1 1.5 0.3
v 0.1 1.5 0.2
v 0.1 1.5 -0.3
v 0.1 1.5 -0.6
v 0.1 1.6 0.2
v 0.1 1.6 0.1
v 0.1 1.6 -0.6
v 0.1 1.6 -0.7
v 0.1 1.7 0.1
v 0.1 1.7 -0.1
v 0.1 1.7 -0.6
v 0.1 1.7 -0.7
v 0.1 1.8 -0.1
v 0.1 1.8 -0.6
v 0.3 0.9 0.7
v 0.3 0.9 0.5
v 0.3 1 0.6
v 0.3 1 0.5
v 0.3 1.1 0.7
v 0.3 1.1 0.6
v 0.4 1 0.3
v 0.4 1 0.1
v 0.4 1.3 0.3
v 0.4 1.3 0.2
v 0.4 1.3 0.1
v 0.4 1.3 0
v 0.4 1.5 0.2
v 0.4 1.5 0.1
v 0.4 1.5 0
v 0.4 1.5 -0.1
v 0.4 1.6 0.1
v 0.4 1.6 -0.1
v -0.4 1 0.3
v -0.4 1 0.1
v -0.4 1.3 0.3
v -0.4 1.3 0.2
v -0.4 1.3 0.1
v -0.4 1.3 0
v -0.4 1.5 0.2
v -0.4 1.5 0.1
v -0.4 1.5 0
v -0.4 1.5 -0.1
v -0.4 1.6 0.1
v -0.4 1.6 -0.1
v -0.4 1.6 -0.2
v -0.4 1.7 -0.1
v -0.4 1.7 -0.2
v -0.3 0.9 0.7
v -0.3 0.9 0.5
v -0.3 1 0.6
v -0.3 1 0.5
v -0.3 1.1 0.7
v -0.3 1.1 0.6
v -0.1 1 0.4
v -0.1 1 0
v -0.1 1.1 0
v -0.1 1.1 -0.1
v -0.1 1.3 0.4
v -0.1 1.3 0.3
v -0.1 1.3 -0.1
v -0.1 1.3 -0.2
v -0.1 1.4 -0.2
v -0.1 1.4 -0.3
v -0.1 1.5 0.3
v -0.1 1.5 0.2
v -0.1 1.5 -0.3
v -0.1 1.5 -0.6
v -0.1 1.6 0.2
v -0.1 1.6 0.1
v -0.1 1.6 -0.6
v -0.1 1.6 -0.7
v -0.1 1.7 0.1
v -0.1 1.7 -0.1
v -0.1 1.7 -0.6
v -0.1 1.7 -0.7
v -0.1 1.8 -0.1
v -0.1 1.8 -0.6
v 0.2 1 0.3
v 0.2 1 0.1
v 0.2 1.3 0.3
v 0.2 1.3 0.2
v 0.2 1.3 0.1
v 0.2 1.3 0
v 0.2 1.5 0.2
v 0.2 1.5 0.1
v 0.2 1.5 0
v 0.2 1.5 -0.1
v 0.2 1.6 0.1
v 0.2 1.6 -0.1
v 0.5 0 0.5
v 0.5 0 -0.5
v 0.5 0.9 0.7
v 0.5 0.9 0.5
v 0.5 1 0.6
v 0.5 1 0.5
v 0.5 1 0.4
v 0.5 1 0
v 0.5 1 -0.5
v 0.5 1.1 0.7
v 0.5 1.1 0.6
v 0.5 1.1 0
v 0.5 1.1 -0.1
v 0.5 1.3 0.4
v 0.5 1.3 0.3
v 0.5 1.3 -0.1
v 0.5 1.3 -0.2
v 0.5 1.4 -0.2
v 0.5 1.4 -0.3
v 0.5 1.5 0.3
v 0.5 1.5 0.2
v 0.5 1.5 -0.3
v 0.5 1.5 -0.6
v 0.5 1.6 0.2
v 0.5 1.6 0.1
v 0.5 1.6 -0.6
v 0.5 1.6 -0.7
v 0.5 1.7 0.1
v 0.5 1.7 -0.1
v 0.5 1.7 -0.6
v 0.5 1.7 -0.7
v 0.5 1.8 -0.1
v 0.5 1.8 -0.6
v -0.5 0.9 0.7
v -0.5 1.1 0.7
v -0.3 0.9 0.7
v -0.3 1.1 0.7
v 0.3 0.9 0.7
v 0.3 1.1 0.7
v 0.5 0.9 0.7
v 0.5 1.1 0.7
v -0.5 0 0.5
v -0.5 0.9 0.5
v -0.4 0.3 0.5
v -0.4 0.4 0.5
v -0.4 0.5 0.5
v -0.4 0.6 0.5
v -0.4 0.9 0.5
v -0.3 0.1 0.5
v -0.3 0.3 0.5
v -0.3 0.4 0.5
v -0.3 0.5 0.5
v -0.3 0.8 0.5
v -0.3 0.9 0.5
v -0.3 1 0.5
v -0.2 0 0.5
v -0.2 0.1 0.5
v -0.2 0.3 0.5
v -0.2 0.4 0.5
v -0.2 0.5 0.5
v -0.2 0.6 0.5
v -0.2 0.8 0.5
v -0.1 0 0.5
v -0.1 0.1 0.5
v -0.1 0.2 0.5
v -0.1 0.3 0.5
v -0.1 0.4 0.5
v -0.1 0.5 0.5
v 0 0 0.5
v 0 0.1 0.5
v 0 0.2 0.5
v 0 0.3 0.5
v 0 0.4 0.5
v 0 0.5 0.5
v 0.1 0 0.5
v 0.1 0.1 0.5
v 0.1 0.2 0.5
v 0.1 0.3 0.5
v 0.1 0.4 0.5
v 0.1 0.5 0.5
v 0.2 0 0.5
v 0.2 0.1 0.5
v 0.2 0.2 0.5
v 0.2 0.3 0.5
v 0.2 0.4 0.5
v 0.2 0.5 0.5
v 0.2 0.6 0.5
v 0.2 0.8 0.5
v 0.3 0.1 0.5
v 0.3 0.3 0.5
v 0.3 0.4 0.5
v 0.3 0.5 0.5
v 0.3 0.8 0.5
v 0.3 0.9 0.5
v 0.3 1 0.5
v 0.4 0.3 0.5
v 0.4 0.5 0.5
v 0.4 0.6 0.5
v 0.4 0.9 0.5
v 0.5 0 0.5
v 0.5 0.9 0.5
v -0.5 1 0.4
v -0.5 1.3 0.4
v -0.1 1 0.4
v -0.1 1.3 0.4
v 0.1 1 0.4
v 0.1 1.3 0.4
v 0.5 1 0.4
v 0.5 1.3 0.4
v -0.5 1.3 0.3
v -0.5 1.5 0.3
v -0.1 1.3 0.3
v -0.1 1.5 0.3
v 0.1 1.3 0.3
v 0.1 1.5 0.3
v 0.5 1.3 0.3
v 0.5 1.5 0.3
v -0.5 1.5 0.2
v -0.5 1.6 0.2
v -0.1 1.5 0.2
v -0.1 1.6 0.2
v 0.1 1.5 0.2
v 0.1 1.6 0.2
v 0.5 1.5 0.2
v 0.5 1.6 0.2
v -0.5 1.6 0.1
v -0.5 1.7 0.1
v -0.4 1 0.1
v -0.4 1.3 0.1
v -0.2 1 0.1
v -0.2 1.3 0.1
v -0.1 1.6 0.1
v -0.1 1.7 0.1
v 0.1 1.6 0.1
v 0.1 1.7 0.1
v 0.2 1 0.1
v 0.2 1.3 0.1
v 0.4 1 0.1
v 0.4 1.3 0.1
v 0.5 1.6 0.1
v 0.5 1.7 0.1
v -0.4 1.3 0
v -0.4 1.5 0
v -0.2 1.3 0
v -0.2 1.5 0
v 0.2 1.3 0
v 0.2 1.5 0
v 0.4 1.3 0
v 0.4 1.5 0
v -0.5 1.7 -0.1
v -0.5 1.8 -0.1
v -0.4 1.5 -0.1
v -0.4 1.6 -0.1
v -0.2 1.5 -0.1
v -0.2 1.6 -0.1
v -0.1 1.7 -0.1
v -0.1 1.8 -0.1
v 0.1 1.7 -0.1
v 0.1 1.8 -0.1
v 0.2 1.5 -0.1
v 0.2 1.6 -0.1
v 0.4 1.5 -0.1
v 0.4 1.6 -0.1
v 0.5 1.7 -0.1
v 0.5 1.8 -0.1
v -0.4 1.6 -0.2
v -0.4 1.7 -0.2
v -0.2 1.6 -0.2
v -0.2 1.7 -0.2
v -0.5 1 0.6
v -0.5 1.1 0.6
v -0.3 1 0.6
v -0.3 1.1 0.6
v 0.3 1 0.6
v 0.3 1.1 0.6
v 0.5 1 0.6
v 0.5 1.1 0.6
v -0.4 1 0.3
v -0.4 1.3 0.3
v -0.2 1 0.3
v -0.2 1.3 0.3
v 0.2 1 0.3
v 0.2 1.3 0.3
v 0.4 1 0.3
v 0.4 1.3 0.3
v -0.4 1.3 0.2
v -0.4 1.5 0.2
v -0.2 1.3 0.2
v -0.2 1.5 0.2
v 0.2 1.3 0.2
v 0.2 1.5 0.2
v 0.4 1.3 0.2
v 0.4 1.5 0.2
v -0.4 1.5 0.1
v -0.4 1.6 0.1
v -0.2 1.5 0.1
v -0.2 1.6 0.1
v 0.2 1.5 0.1
v 0.2 1.6 0.1
v 0.4 1.5 0.1
v 0.4 1.6 0.1
v -0.5 1 0
v -0.5 1.1 0
v -0.1 1 0
v -0.1 1.1 0
v 0.1 1 0
v 0.1 1.1 0
v 0.5 1 0
v 0.5 1.1 0
v -0.5 1.1 -0.1
v -0.5 1.3 -0.1
v -0.4 1.6 -0.1
v -0.4 1.7 -0.1
v -0.2 1.6 -0.1
v -0.2 1.7 -0.1
v -0.1 1.1 -0.1
v -0.1 1.3 -0.1
v 0.1 1.1 -0.1
v 0.1 1.3 -0.1
v 0.5 1.1 -0.1
v 0.5 1.3 -0.1
v -0.5 1.3 -0.2
v -0.5 1.4 -0.2
v -0.1 1.3 -0.2
v -0.1 1.4 -0.2
v 0.1 1.3 -0.2
v 0.1 1.4 -0.2
v 0.5 1.3 -0.2
v 0.5 1.4 -0.2
v -0.5 1.4 -0.3
v -0.5 1.5 -0.3
v -0.1 1.4 -0.3
v -0.1 1.5 -0.3
v 0.1 1.4 -0.3
v 0.1 1.5 -0.3
v 0.5 1.4 -0.3
v 0.5 1.5 -0.3
v -0.5 0 -0.5
v -0.5 1 -0.5
v 0.5 0 -0.5
v 0.5 1 -0.5
v -0.5 1.5 -0.6
v -0.5 1.6 -0.6
v -0.5 1.7 -0.6
v -0.5 1.8 -0.6
v -0.1 1.5 -0.6
v -0.1 1.6 -0.6
v -0.1 1.7 -0.6
v -0.1 1.8 -0.6
v 0.1 1.5 -0.6
v 0.1 1.6 -0.6
v 0.1 1.7 -0.6
v 0.1 1.8 -0.6
v 0.5 1.5 -0.6
v 0.5 1.6 -0.6
v 0.5 1.7 -0.6
v 0.5 1.8 -0.6
v -0.5 1.6 -0.7
v -0.5 1.7 -0.7
v -0.1 1.6 -0.7
v -0.1 1.7 -0.7
v 0.1 1.6 -0.7
v 0.1 1.7 -0.7
v 0.5 1.6 -0.7
v 0.5 1.7 -0.7
v -0.5 0 0.5
v -0.2 0 0.5
v -0.1 0 0.5
v 0 0 0.5
v 0.1 0 0.5
v 0.2 0 0.5
v 0.5 0 0.5
v -0.2 0 0.4
v -0.1 0 0.4
v 0 0 0.4
v 0.1 0 0.4
v 0.2 0 0.4
v -0.5 0 -0.5
v 0.5 0 -0.5
v -0.5 0.9 0.7
v -0.3 0.9 0.7
v 0.3 0.9 0.7
v 0.5 0.9 0.7
v -0.5 0.9 0.5
v -0.4 0.9 0.5
v -0.3 0.9 0.5
v 0.3 0.9 0.5
v 0.4 0.9 0.5
v 0.5 0.9 0.5
v -0.5 1.1 0
v -0.1 1.1 0
v 0.1 1.1 0
v 0.5 1.1 0
v -0.5 1.1 -0.1
v -0.1 1.1 -0.1
v 0.1 1.1 -0.1
v 0.5 1.1 -0.1
v -0.4 1.3 0.3
v -0.2 1.3 0.3
v 0.2 1.3 0.3
v 0.4 1.3 0.3
v -0.4 1.3 0.2
v -0.2 1.3 0.2
v 0.2 1.3 0.2
v 0.4 1.3 0.2
v -0.5 1.3 -0.1
v -0.1 1.3 -0.1
v 0.1 1.3 -0.1
v 0.5 1.3 -0.1
v -0.5 1.3 -0.2
v -0.1 1.3 -0.2
v 0.1 1.3 -0.2
v 0.5 1.3 -0.2
v -0.5 1.4 -0.2
v -0.1 1.4 -0.2
v 0.1 1.4 -0.2
v 0.5 1.4 -0.2
v -0.5 1.4 -0.3
v -0.1 1.4 -0.3
v 0.1 1.4 -0.3
v 0.5 1.4 -0.3
v -0.4 1.5 0.2
v -0.2 1.5 0.2
v 0.2 1.5 0.2
v 0.4 1.5 0.2
v -0.4 1.5 0.1
v -0.2 1.5 0.1
v 0.2 1.5 0.1
v 0.4 1.5 0.1
v -0.5 1.5 -0.3
v -0.1 1.5 -0.3
v 0.1 1.5 -0.3
v 0.5 1.5 -0.3
v -0.5 1.5 -0.6
v -0.1 1.5 -0.6
v 0.1 1.5 -0.6
v 0.5 1.5 -0.6
v -0.4 1.6 0.1
v -0.2 1.6 0.1
v 0.2 1.6 0.1
v 0.4 1.6 0.1
v -0.4 1.6 -0.1
v -0.2 1.6 -0.1
v 0.2 1.6 -0.1
v 0.4 1.6 -0.1
v -0.5 1.6 -0.6
v -0.1 1.6 -0.6
v 0.1 1.6 -0.6
v 0.5 1.6 -0.6
v -0.5 1.6 -0.7
v -0.1 1.6 -0.7
v 0.1 1.6 -0.7
v 0.5 1.6 -0.7
v -0.4 1.7 -0.1
v -0.2 1.7 -0.1
v -0.4 1.7 -0.2
v -0.2 1.7 -0.2
v -0.5 1 0.6
v -0.3 1 0.6
v 0.3 1 0.6
v 0.5 1 0.6
v -0.5 1 0.5
v -0.3 1 0.5
v 0.3 1 0.5
v 0.5 1 0.5
v -0.5 1 0.4
v -0.1 1 0.4
v 0.1 1 0.4
v 0.5 1 0.4
v -0.4 1 0.3
v -0.2 1 0.3
v 0.2 1 0.3
v 0.4 1 0.3
v -0.4 1 0.1
v -0.2 1 0.1
v 0.2 1 0.1
v 0.4 1 0.1
v -0.5 1 0
v -0.1 1 0
v 0.1 1 0
v 0.5 1 0
v -0.5 1 -0.5
v 0.5 1 -0.5
v -0.5 1.1 0.7
v -0.3 1.1 0.7
v 0.3 1.1 0.7
v 0.5 1.1 0.7
v -0.5 1.1 0.6
v -0.3 1.1 0.6
v 0.3 1.1 0.6
v 0.5 1.1 0.6
v -0.5 1.3 0.4
v -0.1 1.3 0.4
v 0.1 1.3 0.4
v 0.5 1.3 0.4
v -0.5 1.3 0.3
v -0.1 1.3 0.3
v 0.1 1.3 0.3
v 0.5 1.3 0.3
v -0.4 1.3 0.1
v -0.2 1.3 0.1
v 0.2 1.3 0.1
v 0.4 1.3 0.1
v -0.4 1.3 0
v -0.2 1.3 0
v 0.2 1.3 0
v 0.4 1.3 0
v -0.5 1.5 0.3
v -0.1 1.5 0.3
v 0.1 1.5 0.3
v 0.5 1.5 0.3
v -0.5 1.5 0.2
v -0.1 1.5 0.2
v 0.1 1.5 0.2
v 0.5 1.5 0.2
v -0.4 1.5 0
v -0.2 1.5 0
v 0.2 1.5 0
v 0.4 1.5 0
v -0.4 1.5 -0.1
v -0.2 1.5 -0.1
v 0.2 1.5 -0.1
v 0.4 1.5 -0.1
v -0.5 1.6 0.2
v -0.1 1.6 0.2
v 0.1 1.6 0.2
v 0.5 1.6 0.2
v -0.5 1.6 0.1
v -0.1 1.6 0.1
v 0.1 1.6 0.1
v 0.5 1.6 0.1
v -0.4 1.6 -0.1
v -0.2 1.6 -0.1
v -0.4 1.6 -0.2
v -0.2 1.6 -0.2
v -0.5 1.7 0.1
v -0.1 1.7 0.1
v 0.1 1.7 0.1
v 0.5 1.7 0.1
v -0.5 1.7 -0.1
v -0.1 1.7 -0.1
v 0.1 1.7 -0.1
v 0.5 1.7 -0.1
v -0.5 1.7 -0.6
v -0.1 1.7 -0.6
v 0.1 1.7 -0.6
v 0.5 1.7 -0.6
v -0.5 1.7 -0.7
v -0.1 1.7 -0.7
v 0.1 1.7 -0.7
v 0.5 1.7 -0.7
v -0.5 1.8 -0.1
v -0.1 1.8 -0.1
v 0.1 1.8 -0.1
v 0.5 1.8 -0.1
v -0.5 1.8 -0.6
v -0.1 1.8 -0.6
v 0.1 1.8 -0.6
v 0.5 1.8 -0.6

# faces
f 4/1/1 2/1/1 1/1/1
f 5/2/1 4/2/1 3/2/1
f 6/1/1 2/1/1 4/1/1
f 6/2/1 4/2/1 5/2/1
f 7/1/1 2/1/1 6/1/1
f 8/1/1 2/1/1 7/1/1
f 9/1/1 2/1/1 8/1/1
f 10/2/1 5/2/1 3/2/1
f 11/2/1 5/2/1 10/2/1
f 12/2/1 8/2/1 7/2/1
f 14/2/1 13/2/1 12/2/1
f 14/2/1 12/2/1 7/2/1
f 15/2/1 13/2/1 14/2/1
f 16/2/1 13/2/1 15/2/1
f 18/2/1 17/2/1 16/2/1
f 18/2/1 16/2/1 15/2/1
f 20/2/1 18/2/1 15/2/1
f 20/2/1 19/2/1 18/2/1
f 21/2/1 19/2/1 20/2/1
f 22/2/1 19/2/1 21/2/1
f 24/2/1 22/2/1 21/2/1
f 24/2/1 23/2/1 22/2/1
f 25/2/1 23/2/1 24/2/1
f 26/2/1 23/2/1 25/2/1
f 28/2/1 27/2/1 26/2/1
f 28/2/1 26/2/1 25/2/1
f 29/2/1 27/2/1 28/2/1
f 30/2/1 27/2/1 29/2/1
f 31/2/1 27/2/1 30/2/1
f 32/2/1 30/2/1 29/2/1
f 33/2/1 30/2/1 32/2/1
f 36/2/1 35/2/1 34/2/1
f 37/2/1 35/2/1 36/2/1
f 38/2/1 35/2/1 37/2/1
f 40/2/1 39/2/1 38/2/1
f 40/2/1 38/2/1 37/2/1
f 41/2/1 39/2/1 40/2/1
f 42/2/1 39/2/1 41/2/1
f 44/2/1 43/2/1 42/2/1
f 44/2/1 42/2/1 41/2/1
f 45/2/1 43/2/1 44/2/1
f 47/2/1 46/2/1 45/2/1
f 48/2/1 46/2/1 47/2/1
f 51/2/1 50/2/1 49/2/1
f 53/2/1 51/2/1 49/2/1
f 53/2/1 52/2/1 51/2/1
f 54/2/1 52/2/1 53/2/1
f 55/2/1 52/2/1 54/2/1
f 57/2/1 56/2/1 55/2/1
f 57/2/1 55/2/1 54/2/1
f 59/2/1 57/2/1 54/2/1
f 59/2/1 58/2/1 57/2/1
f 60/2/1 58/2/1 59/2/1
f 61/2/1 58/2/1 60/2/1
f 63/2/1 62/2/1 61/2/1
f 63/2/1 61/2/1 60/2/1
f 64/2/1 62/2/1 63/2/1
f 65/2/1 62/2/1 64/2/1
f 67/2/1 66/2/1 65/2/1
f 67/2/1 65/2/1 64/2/1
f 68/2/1 66/2/1 67/2/1
f 69/2/1 66/2/1 68/2/1
f 70/2/1 66/2/1 69/2/1
f 71/2/1 69/2/1 68/2/1
f 72/2/1 69/2/1 71/2/1
f 75/2/1 74/2/1 73/2/1
f 76/2/1 74/2/1 75/2/1
f 77/2/1 75/2/1 73/2/1
f 78/2/1 75/2/1 77/2/1
f 81/2/1 80/2/1 79/2/1
f 82/2/1 80/2/1 81/2/1
f 83/2/1 80/2/1 82/2/1
f 85/2/1 84/2/1 83/2/1
f 85/2/1 83/2/1 82/2/1
f 86/2/1 84/2/1 85/2/1
f 87/2/1 84/2/1 86/2/1
f 89/2/1 88/2/1 87/2/1
f 89/2/1 87/2/1 86/2/1
f 90/2/1 88/2/1 89/2/1
f 91/2/2 92/2/2 93/2/2
f 93/2/2 92/2/2 94/2/2
f 94/2/2 92/2/2 95/2/2
f 95/2/2 96/2/2 97/2/2
f 94/2/2 95/2/2 97/2/2
f 97/2/2 96/2/2 98/2/2
f 98/2/2 96/2/2 99/2/2
f 99/2/2 100/2/2 101/2/2
f 98/2/2 99/2/2 101/2/2
f 101/2/2 100/2/2 102/2/2
f 102/2/2 103/2/2 104/2/2
f 104/2/2 103/2/2 105/2/2
f 106/2/2 107/2/2 108/2/2
f 108/2/2 107/2/2 109/2/2
f 106/2/2 108/2/2 110/2/2
f 110/2/2 108/2/2 111/2/2
f 112/2/2 113/2/2 114/2/2
f 112/2/2 114/2/2 116/2/2
f 114/2/2 115/2/2 116/2/2
f 116/2/2 115/2/2 117/2/2
f 117/2/2 115/2/2 118/2/2
f 118/2/2 119/2/2 120/2/2
f 117/2/2 118/2/2 120/2/2
f 117/2/2 120/2/2 122/2/2
f 120/2/2 121/2/2 122/2/2
f 122/2/2 121/2/2 123/2/2
f 123/2/2 121/2/2 124/2/2
f 124/2/2 125/2/2 126/2/2
f 123/2/2 124/2/2 126/2/2
f 126/2/2 125/2/2 127/2/2
f 127/2/2 125/2/2 128/2/2
f 128/2/2 129/2/2 130/2/2
f 127/2/2 128/2/2 130/2/2
f 130/2/2 129/2/2 131/2/2
f 131/2/2 129/2/2 132/2/2
f 132/2/2 129/2/2 133/2/2
f 131/2/2 132/2/2 134/2/2
f 134/2/2 132/2/2 135/2/2
f 136/2/2 137/2/2 138/2/2
f 138/2/2 137/2/2 139/2/2
f 139/2/2 137/2/2 140/2/2
f 140/2/2 141/2/2 142/2/2
f 139/2/2 140/2/2 142/2/2
f 142/2/2 141/2/2 143/2/2
f 143/2/2 141/2/2 144/2/2
f 144/2/2 145/2/2 146/2/2
f 143/2/2 144/2/2 146/2/2
f 146/2/2 145/2/2 147/2/2
f 148/1/2 149/1/2 151/1/2
f 150/2/2 151/2/2 152/2/2
f 151/1/2 149/1/2 153/1/2
f 152/2/2 151/2/2 153/2/2
f 153/1/2 149/1/2 154/1/2
f 154/1/2 149/1/2 155/1/2
f 155/1/2 149/1/2 156/1/2
f 150/2/2 152/2/2 157/2/2
f 157/2/2 152/2/2 158/2/2
f 154/2/2 155/2/2 159/2/2
f 159/2/2 160/2/2 161/2/2
f 154/2/2 159/2/2 161/2/2
f 161/2/2 160/2/2 162/2/2
f 162/2/2 160/2/2 163/2/2
f 163/2/2 164/2/2 165/2/2
f 162/2/2 163/2/2 165/2/2
f 162/2/2 165/2/2 167/2/2
f 165/2/2 166/2/2 167/2/2
f 167/2/2 166/2/2 168/2/2
f 168/2/2 166/2/2 169/2/2
f 168/2/2 169/2/2 171/2/2
f 169/2/2 170/2/2 171/2/2
f 171/2/2 170/2/2 172/2/2
f 172/2/2 170/2/2 173/2/2
f 173/2/2 174/2/2 175/2/2
f 172/2/2 173/2/2 175/2/2
f 175/2/2 174/2/2 176/2/2
f 176/2/2 174/2/2 177/2/2
f 177/2/2 174/2/2 178/2/2
f 176/2/2 177/2/2 179/2/2
f 179/2/2 177/2/2 180/2/2
f 183/2/3 182/2/3 181/2/3
f 184/2/3 182/2/3 183/2/3
f 187/2/3 186/2/3 185/2/3
f 188/2/3 186/2/3 187/2/3
f 191/1/3 190/1/3 189/1/3
f 192/1/3 190/1/3 191/1/3
f 193/1/3 190/1/3 192/1/3
f 194/1/3 190/1/3 193/1/3
f 195/1/3 190/1/3 194/1/3
f 196/1/3 191/1/3 189/1/3
f 197/5/3 192/5/3 191/5/3
f 197/1/3 191/1/3 196/1/3
f 198/4/3 193/4/3 192/4/3
f 198/5/3 192/5/3 197/5/3
f 199/1/3 194/1/3 193/1/3
f 199/4/3 193/4/3 198/4/3
f 200/5/3 195/5/3 194/5/3
f 201/5/3 195/5/3 200/5/3
f 203/1/3 196/1/3 189/1/3
f 204/5/3 197/5/3 196/5/3
f 204/1/3 196/1/3 203/1/3
f 205/3/3 198/3/3 197/3/3
f 205/5/3 197/5/3 204/5/3
f 205/3/3 199/3/3 198/3/3
f 206/3/3 199/3/3 205/3/3
f 207/1/3 194/1/3 199/1/3
f 207/3/3 199/3/3 206/3/3
f 208/5/3 200/5/3 194/5/3
f 208/1/3 194/1/3 207/1/3
f 209/1/3 201/1/3 200/1/3
f 209/5/3 200/5/3 208/5/3
f 209/1/3 202/1/3 201/1/3
f 210/4/3 204/4/3 203/4/3
f 211/5/3 205/5/3 204/5/3
f 211/4/3 204/4/3 210/4/3
f 211/5/3 206/5/3 205/5/3
f 212/5/3 206/5/3 211/5/3
f 213/5/3 206/5/3 212/5/3
f 214/4/3 207/4/3 206/4/3
f 214/5/3 206/5/3 213/5/3
f 215/1/3 208/1/3 207/1/3
f 215/4/3 207/4/3 214/4/3
f 215/1/3 209/1/3 208/1/3
f 216/3/3 212/3/3 211/3/3
f 216/3/3 211/3/3 210/3/3
f 217/3/3 212/3/3 216/3/3
f 218/5/3 213/5/3 212/5/3
f 218/3/3 212/3/3 217/3/3
f 219/3/3 214/3/3 213/3/3
f 219/5/3 213/5/3 218/5/3
f 219/3/3 215/3/3 214/3/3
f 220/3/3 215/3/3 219/3/3
f 221/1/3 209/1/3 215/1/3
f 221/3/3 215/3/3 220/3/3
f 222/4/3 217/4/3 216/4/3
f 223/5/3 218/5/3 217/5/3
f 223/4/3 217/4/3 222/4/3
f 223/5/3 220/5/3 219/5/3
f 223/5/3 219/5/3 218/5/3
f 224/5/3 220/5/3 223/5/3
f 225/5/3 220/5/3 224/5/3
f 226/4/3 221/4/3 220/4/3
f 226/5/3 220/5/3 225/5/3
f 227/1/3 209/1/3 221/1/3
f 227/4/3 221/4/3 226/4/3
f 228/3/3 223/3/3 222/3/3
f 228/3/3 224/3/3 223/3/3
f 229/3/3 224/3/3 228/3/3
f 230/5/3 225/5/3 224/5/3
f 230/3/3 224/3/3 229/3/3
f 231/3/3 226/3/3 225/3/3
f 231/5/3 225/5/3 230/5/3
f 231/3/3 227/3/3 226/3/3
f 232/3/3 227/3/3 231/3/3
f 233/1/3 209/1/3 227/1/3
f 233/3/3 227/3/3 232/3/3
f 234/1/3 209/1/3 233/1/3
f 235/1/3 202/1/3 209/1/3
f 235/1/3 209/1/3 234/1/3
f 236/1/3 229/1/3 228/1/3
f 236/5/3 230/5/3 229/5/3
f 236/5/3 232/5/3 231/5/3
f 236/5/3 231/5/3 230/5/3
f 237/5/3 232/5/3 236/5/3
f 238/4/3 233/4/3 232/4/3
f 238/5/3 232/5/3 237/5/3
f 239/1/3 234/1/3 233/1/3
f 239/4/3 233/4/3 238/4/3
f 240/1/3 202/1/3 235/1/3
f 240/5/3 235/5/3 234/5/3
f 241/1/3 202/1/3 240/1/3
f 242/1/3 202/1/3 241/1/3
f 243/3/3 238/3/3 237/3/3
f 243/3/3 239/3/3 238/3/3
f 243/1/3 237/1/3 236/1/3
f 244/1/3 234/1/3 239/1/3
f 244/3/3 239/3/3 243/3/3
f 245/5/3 241/5/3 240/5/3
f 245/1/3 234/1/3 244/1/3
f 245/5/3 240/5/3 234/5/3
f 246/5/3 241/5/3 245/5/3
f 247/1/3 243/1/3 236/1/3
f 247/1/3 244/1/3 243/1/3
f 247/1/3 246/1/3 245/1/3
f 247/1/3 245/1/3 244/1/3
f 247/1/3 236/1/3 228/1/3
f 248/1/3 246/1/3 247/1/3
f 251/2/3 250/2/3 249/2/3
f 252/2/3 250/2/3 251/2/3
f 255/2/3 254/2/3 253/2/3
f 256/2/3 254/2/3 255/2/3
f 259/2/3 258/2/3 257/2/3
f 260/2/3 258/2/3 259/2/3
f 263/2/3 262/2/3 261/2/3
f 264/2/3 262/2/3 263/2/3
f 267/2/3 266/2/3 265/2/3
f 268/2/3 266/2/3 267/2/3
f 271/2/3 270/2/3 269/2/3
f 272/2/3 270/2/3 271/2/3
f 277/2/3 276/2/3 275/2/3
f 278/2/3 276/2/3 277/2/3
f 279/2/3 274/2/3 273/2/3
f 280/2/3 274/2/3 279/2/3
f 285/2/3 284/2/3 283/2/3
f 286/2/3 284/2/3 285/2/3
f 287/2/3 282/2/3 281/2/3
f 288/2/3 282/2/3 287/2/3
f 291/2/3 290/2/3 289/2/3
f 292/2/3 290/2/3 291/2/3
f 295/2/3 294/2/3 293/2/3
f 296/2/3 294/2/3 295/2/3
f 301/2/3 300/2/3 299/2/3
f 302/2/3 300/2/3 301/2/3
f 303/2/3 298/2/3 297/2/3
f 304/2/3 298/2/3 303/2/3
f 309/2/3 308/2/3 307/2/3
f 310/2/3 308/2/3 309/2/3
f 311/2/3 306/2/3 305/2/3
f 312/2/3 306/2/3 311/2/3
f 315/2/3 314/2/3 313/2/3
f 316/2/3 314/2/3 315/2/3
f 317/2/4 318/2/4 319/2/4
f 319/2/4 318/2/4 320/2/4
f 321/2/4 322/2/4 323/2/4
f 323/2/4 322/2/4 324/2/4
f 325/2/4 326/2/4 327/2/4
f 327/2/4 326/2/4 328/2/4
f 329/2/4 330/2/4 331/2/4
f 331/2/4 330/2/4 332/2/4
f 333/2/4 334/2/4 335/2/4
f 335/2/4 334/2/4 336/2/4
f 337/2/4 338/2/4 339/2/4
f 339/2/4 338/2/4 340/2/4
f 341/2/4 342/2/4 343/2/4
f 343/2/4 342/2/4 344/2/4
f 345/2/4 346/2/4 347/2/4
f 347/2/4 346/2/4 348/2/4
f 349/2/4 350/2/4 351/2/4
f 351/2/4 350/2/4 352/2/4
f 353/2/4 354/2/4 355/2/4
f 355/2/4 354/2/4 356/2/4
f 359/2/4 360/2/4 361/2/4
f 361/2/4 360/2/4 362/2/4
f 357/2/4 358/2/4 363/2/4
f 363/2/4 358/2/4 364/2/4
f 365/2/4 366/2/4 367/2/4
f 367/2/4 366/2/4 368/2/4
f 369/2/4 370/2/4 371/2/4
f 371/2/4 370/2/4 372/2/4
f 373/2/4 374/2/4 375/2/4
f 375/2/4 374/2/4 376/2/4
f 377/2/4 378/2/4 379/2/4
f 379/2/4 378/2/4 380/2/4
f 381/2/4 382/2/4 383/2/4
f 383/2/4 382/2/4 384/2/4
f 385/1/4 386/1/4 387/1/4
f 387/1/4 386/1/4 388/1/4
f 389/2/4 390/2/4 393/2/4
f 393/2/4 390/2/4 394/2/4
f 391/2/4 392/2/4 395/2/4
f 395/2/4 392/2/4 396/2/4
f 397/2/4 398/2/4 401/2/4
f 401/2/4 398/2/4 402/2/4
f 399/2/4 400/2/4 403/2/4
f 403/2/4 400/2/4 404/2/4
f 405/2/4 406/2/4 407/2/4
f 407/2/4 406/2/4 408/2/4
f 409/2/4 410/2/4 411/2/4
f 411/2/4 410/2/4 412/2/4
f 420/1/5 414/1/5 413/1/5
f 420/4/5 415/4/5 414/4/5
f 421/3/5 416/3/5 415/3/5
f 421/4/5 415/4/5 420/4/5
f 422/4/5 417/4/5 416/4/5
f 422/3/5 416/3/5 421/3/5
f 423/3/5 418/3/5 417/3/5
f 423/4/5 417/4/5 422/4/5
f 424/1/5 419/1/5 418/1/5
f 424/3/5 418/3/5 423/3/5
f 425/1/5 423/1/5 422/1/5
f 425/1/5 422/1/5 421/1/5
f 425/1/5 424/1/5 423/1/5
f 425/1/5 421/1/5 420/1/5
f 425/1/5 420/1/5 413/1/5
f 426/1/5 419/1/5 424/1/5
f 426/1/5 424/1/5 425/1/5
f 431/2/5 428/2/5 427/2/5
f 432/2/5 428/2/5 431/2/5
f 433/2/5 428/2/5 432/2/5
f 434/2/5 430/2/5 429/2/5
f 435/2/5 430/2/5 434/2/5
f 436/2/5 430/2/5 435/2/5
f 441/2/5 438/2/5 437/2/5
f 442/2/5 438/2/5 441/2/5
f 443/2/5 440/2/5 439/2/5
f 444/2/5 440/2/5 443/2/5
f 449/2/5 446/2/5 445/2/5
f 450/2/5 446/2/5 449/2/5
f 451/2/5 448/2/5 447/2/5
f 452/2/5 448/2/5 451/2/5
f 457/2/5 454/2/5 453/2/5
f 458/2/5 454/2/5 457/2/5
f 459/2/5 456/2/5 455/2/5
f 460/2/5 456/2/5 459/2/5
f 465/2/5 462/2/5 461/2/5
f 466/2/5 462/2/5 465/2/5
f 467/2/5 464/2/5 463/2/5
f 468/2/5 464/2/5 467/2/5
f 473/2/5 470/2/5 469/2/5
f 474/2/5 470/2/5 473/2/5
f 475/2/5 472/2/5 471/2/5
f 476/2/5 472/2/5 475/2/5
f 481/2/5 478/2/5 477/2/5
f 482/2/5 478/2/5 481/2/5
f 483/2/5 480/2/5 479/2/5
f 484/2/5 480/2/5 483/2/5
f 489/2/5 486/2/5 485/2/5
f 490/2/5 486/2/5 489/2/5
f 491/2/5 488/2/5 487/2/5
f 492/2/5 488/2/5 491/2/5
f 497/2/5 494/2/5 493/2/5
f 498/2/5 494/2/5 497/2/5
f 499/2/5 496/2/5 495/2/5
f 500/2/5 496/2/5 499/2/5
f 503/2/5 502/2/5 501/2/5
f 504/2/5 502/2/5 503/2/5
f 505/2/6 506/2/6 509/2/6
f 509/2/6 506/2/6 510/2/6
f 507/2/6 508/2/6 511/2/6
f 511/2/6 508/2/6 512/2/6
f 509/1/6 510/1/6 513/1/6
f 510/1/6 511/1/6 513/1/6
f 511/1/6 512/1/6 513/1/6
f 513/1/6 512/1/6 514/1/6
f 514/1/6 512/1/6 515/1/6
f 515/1/6 512/1/6 516/1/6
f 517/1/6 518/1/6 521/1/6
f 521/1/6 518/1/6 522/1/6
f 519/1/6 520/1/6 523/1/6
f 523/1/6 520/1/6 524/1/6
f 514/1/6 515/1/6 526/1/6
f 526/1/6 515/1/6 527/1/6
f 526/1/6 527/1/6 529/1/6
f 527/1/6 528/1/6 529/1/6
f 525/1/6 526/1/6 529/1/6
f 529/1/6 528/1/6 530/1/6
f 531/2/6 532/2/6 535/2/6
f 535/2/6 532/2/6 536/2/6
f 533/2/6 534/2/6 537/2/6
f 537/2/6 534/2/6 538/2/6
f 539/2/6 540/2/6 543/2/6
f 543/2/6 540/2/6 544/2/6
f 541/2/6 542/2/6 545/2/6
f 545/2/6 542/2/6 546/2/6
f 547/2/6 548/2/6 551/2/6
f 551/2/6 548/2/6 552/2/6
f 549/2/6 550/2/6 553/2/6
f 553/2/6 550/2/6 554/2/6
f 555/2/6 556/2/6 559/2/6
f 559/2/6 556/2/6 560/2/6
f 557/2/6 558/2/6 561/2/6
f 561/2/6 558/2/6 562/2/6
f 563/2/6 564/2/6 567/2/6
f 567/2/6 564/2/6 568/2/6
f 565/2/6 566/2/6 569/2/6
f 569/2/6 566/2/6 570/2/6
f 571/2/6 572/2/6 575/2/6
f 575/2/6 572/2/6 576/2/6
f 573/2/6 574/2/6 577/2/6
f 577/2/6 574/2/6 578/2/6
f 579/2/6 580/2/6 581/2/6
f 581/2/6 580/2/6 582/2/6
f 583/2/6 584/2/6 587/2/6
f 587/2/6 584/2/6 588/2/6
f 585/2/6 586/2/6 589/2/6
f 589/2/6 586/2/6 590/2/6
f 591/2/6 592/2/6 595/2/6
f 595/2/6 592/2/6 596/2/6
f 593/2/6 594/2/6 597/2/6
f 597/2/6 594/2/6 598/2/6
f 599/2/6 600/2/6 603/2/6
f 603/2/6 600/2/6 604/2/6
f 601/2/6 602/2/6 605/2/6
f 605/2/6 602/2/6 606/2/6
