# MagicaVoxel @ Ephtracy

# group
o 

# material
mtllib Walljump1.mtl
usemtl palette

# normals
vn -1 0 0
vn 1 0 0
vn 0 0 1
vn 0 0 -1
vn 0 -1 0
vn 0 1 0

# texcoords
vt 0.857422 0.5
vt 0.869141 0.5
vt 0.873047 0.5

# verts
v -0.3 0 0.4
v -0.3 0 0
v -0.3 0 -0.2
v -0.3 0 -0.6
v -0.3 0.1 0.2
v -0.3 0.1 0.1
v -0.3 0.1 -0.3
v -0.3 0.1 -0.4
v -0.3 0.2 0.2
v -0.3 0.2 0.1
v -0.3 0.2 0
v -0.3 0.2 -0.2
v -0.3 0.2 -0.3
v -0.3 0.2 -0.4
v -0.3 0.3 0.1
v -0.3 0.3 0
v -0.3 0.3 -0.2
v -0.3 0.3 -0.3
v -0.3 0.4 0
v -0.3 0.4 -0.2
v -0.3 0.7 0.4
v -0.3 0.7 -0.6
v 0.2 0.1 0.4
v 0.2 0.1 -0.6
v 0.2 0.2 0.4
v 0.2 0.2 -0.6
v 0.2 0.6 0.4
v 0.2 0.6 -0.6
v -0.2 0 0.4
v -0.2 0 0
v -0.2 0 -0.2
v -0.2 0 -0.6
v -0.2 0.1 0.2
v -0.2 0.1 0.1
v -0.2 0.1 -0.3
v -0.2 0.1 -0.4
v -0.2 0.2 0.2
v -0.2 0.2 0.1
v -0.2 0.2 0
v -0.2 0.2 -0.2
v -0.2 0.2 -0.3
v -0.2 0.2 -0.4
v -0.2 0.3 0.1
v -0.2 0.3 0
v -0.2 0.3 -0.2
v -0.2 0.3 -0.3
v -0.2 0.4 0
v -0.2 0.4 -0.2
v -0.2 0.7 0.4
v -0.2 0.7 -0.6
v 0.3 0.1 0.4
v 0.3 0.1 -0.6
v 0.3 0.2 0.4
v 0.3 0.2 -0.6
v 0.3 0.6 0.4
v 0.3 0.6 -0.6
v -0.3 0 0.4
v -0.3 0.7 0.4
v -0.2 0 0.4
v -0.2 0.7 0.4
v 0.2 0.1 0.4
v 0.2 0.2 0.4
v 0.2 0.6 0.4
v 0.3 0.1 0.4
v 0.3 0.2 0.4
v 0.3 0.6 0.4
v -0.3 0 -0.6
v -0.3 0.7 -0.6
v -0.2 0 -0.6
v -0.2 0.7 -0.6
v 0.2 0.1 -0.6
v 0.2 0.2 -0.6
v 0.2 0.6 -0.6
v 0.3 0.1 -0.6
v 0.3 0.2 -0.6
v 0.3 0.6 -0.6
v -0.3 0 0.4
v -0.2 0 0.4
v -0.3 0 0
v -0.2 0 0
v -0.3 0 -0.2
v -0.2 0 -0.2
v -0.3 0 -0.6
v -0.2 0 -0.6
v 0.2 0.1 0.4
v 0.3 0.1 0.4
v 0.2 0.1 -0.6
v 0.3 0.1 -0.6
v 0.2 0.6 0.4
v 0.3 0.6 0.4
v 0.2 0.6 -0.6
v 0.3 0.6 -0.6
v -0.3 0.7 0.4
v -0.2 0.7 0.4
v -0.3 0.7 -0.6
v -0.2 0.7 -0.6

# faces
f 5/2/1 2/2/1 1/2/1
f 6/2/1 2/2/1 5/2/1
f 7/2/1 4/2/1 3/2/1
f 8/2/1 4/2/1 7/2/1
f 9/2/1 5/2/1 1/2/1
f 9/1/1 6/1/1 5/1/1
f 10/2/1 2/2/1 6/2/1
f 10/1/1 6/1/1 9/1/1
f 11/1/1 3/1/1 2/1/1
f 11/2/1 2/2/1 10/2/1
f 12/2/1 7/2/1 3/2/1
f 12/1/1 3/1/1 11/1/1
f 13/1/1 8/1/1 7/1/1
f 13/2/1 7/2/1 12/2/1
f 14/2/1 4/2/1 8/2/1
f 14/1/1 8/1/1 13/1/1
f 15/2/1 10/2/1 9/2/1
f 15/1/1 13/1/1 12/1/1
f 15/1/1 12/1/1 11/1/1
f 15/1/1 11/1/1 10/1/1
f 16/1/1 13/1/1 15/1/1
f 17/1/1 13/1/1 16/1/1
f 18/2/1 14/2/1 13/2/1
f 18/1/1 13/1/1 17/1/1
f 19/1/1 17/1/1 16/1/1
f 19/2/1 16/2/1 15/2/1
f 20/2/1 18/2/1 17/2/1
f 20/1/1 17/1/1 19/1/1
f 21/2/1 9/2/1 1/2/1
f 21/2/1 15/2/1 9/2/1
f 21/2/1 20/2/1 19/2/1
f 21/2/1 19/2/1 15/2/1
f 22/2/1 18/2/1 20/2/1
f 22/2/1 20/2/1 21/2/1
f 22/2/1 4/2/1 14/2/1
f 22/2/1 14/2/1 18/2/1
f 25/3/1 24/3/1 23/3/1
f 26/3/1 24/3/1 25/3/1
f 27/2/1 26/2/1 25/2/1
f 28/2/1 26/2/1 27/2/1
f 29/2/2 30/2/2 33/2/2
f 33/2/2 30/2/2 34/2/2
f 31/2/2 32/2/2 35/2/2
f 35/2/2 32/2/2 36/2/2
f 29/2/2 33/2/2 37/2/2
f 33/1/2 34/1/2 37/1/2
f 34/2/2 30/2/2 38/2/2
f 37/1/2 34/1/2 38/1/2
f 30/1/2 31/1/2 39/1/2
f 38/2/2 30/2/2 39/2/2
f 31/2/2 35/2/2 40/2/2
f 39/1/2 31/1/2 40/1/2
f 35/1/2 36/1/2 41/1/2
f 40/2/2 35/2/2 41/2/2
f 36/2/2 32/2/2 42/2/2
f 41/1/2 36/1/2 42/1/2
f 37/2/2 38/2/2 43/2/2
f 40/1/2 41/1/2 43/1/2
f 39/1/2 40/1/2 43/1/2
f 38/1/2 39/1/2 43/1/2
f 43/1/2 41/1/2 44/1/2
f 44/1/2 41/1/2 45/1/2
f 41/2/2 42/2/2 46/2/2
f 45/1/2 41/1/2 46/1/2
f 44/1/2 45/1/2 47/1/2
f 43/2/2 44/2/2 47/2/2
f 45/2/2 46/2/2 48/2/2
f 47/1/2 45/1/2 48/1/2
f 29/2/2 37/2/2 49/2/2
f 37/2/2 43/2/2 49/2/2
f 47/2/2 48/2/2 49/2/2
f 43/2/2 47/2/2 49/2/2
f 48/2/2 46/2/2 50/2/2
f 49/2/2 48/2/2 50/2/2
f 42/2/2 32/2/2 50/2/2
f 46/2/2 42/2/2 50/2/2
f 51/3/2 52/3/2 53/3/2
f 53/3/2 52/3/2 54/3/2
f 53/2/2 54/2/2 55/2/2
f 55/2/2 54/2/2 56/2/2
f 59/2/3 58/2/3 57/2/3
f 60/2/3 58/2/3 59/2/3
f 64/3/3 62/3/3 61/3/3
f 65/2/3 63/2/3 62/2/3
f 65/3/3 62/3/3 64/3/3
f 66/2/3 63/2/3 65/2/3
f 67/2/4 68/2/4 69/2/4
f 69/2/4 68/2/4 70/2/4
f 71/3/4 72/3/4 74/3/4
f 72/2/4 73/2/4 75/2/4
f 74/3/4 72/3/4 75/3/4
f 75/2/4 73/2/4 76/2/4
f 79/2/5 78/2/5 77/2/5
f 80/2/5 78/2/5 79/2/5
f 81/1/5 80/1/5 79/1/5
f 82/1/5 80/1/5 81/1/5
f 83/2/5 82/2/5 81/2/5
f 84/2/5 82/2/5 83/2/5
f 87/3/5 86/3/5 85/3/5
f 88/3/5 86/3/5 87/3/5
f 89/2/6 90/2/6 91/2/6
f 91/2/6 90/2/6 92/2/6
f 93/2/6 94/2/6 95/2/6
f 95/2/6 94/2/6 96/2/6
