# MagicaVoxel @ Ephtracy

# group
o 

# material
mtllib Fedhead.mtl
usemtl palette

# normals
vn -1 0 0
vn 1 0 0
vn 0 0 1
vn 0 0 -1
vn 0 -1 0
vn 0 1 0

# texcoords
vt 0.0488281 0.5
vt 0.857422 0.5
vt 0.865234 0.5
vt 0.994141 0.5

# verts
v -0.5 0 0.5
v -0.5 0 -0.5
v -0.5 0.9 0.7
v -0.5 0.9 0.5
v -0.5 1 0.6
v -0.5 1 0.5
v -0.5 1 0.4
v -0.5 1 0
v -0.5 1 -0.5
v -0.5 1.1 0.7
v -0.5 1.1 0.6
v -0.5 1.1 0
v -0.5 1.1 -0.1
v -0.5 1.3 0.4
v -0.5 1.3 0.3
v -0.5 1.3 -0.1
v -0.5 1.3 -0.2
v -0.5 1.4 -0.2
v -0.5 1.4 -0.3
v -0.5 1.5 0.3
v -0.5 1.5 0.2
v -0.5 1.5 -0.3
v -0.5 1.5 -0.6
v -0.5 1.6 0.2
v -0.5 1.6 0.1
v -0.5 1.6 -0.6
v -0.5 1.6 -0.7
v -0.5 1.7 0.1
v -0.5 1.7 -0.1
v -0.5 1.7 -0.6
v -0.5 1.7 -0.7
v -0.5 1.8 -0.1
v -0.5 1.8 -0.6
v -0.2 1 0.3
v -0.2 1 0.1
v -0.2 1.3 0.3
v -0.2 1.3 0.2
v -0.2 1.3 0.1
v -0.2 1.3 0
v -0.2 1.5 0.2
v -0.2 1.5 0.1
v -0.2 1.5 0
v -0.2 1.5 -0.1
v -0.2 1.6 0.1
v -0.2 1.6 -0.1
v -0.2 1.6 -0.2
v -0.2 1.7 -0.1
v -0.2 1.7 -0.2
v 0.1 1 0.4
v 0.1 1 0
v 0.1 1.1 0
v 0.1 1.1 -0.1
v 0.1 1.3 0.4
v 0.1 1.3 0.3
v 0.1 1.3 -0.1
v 0.1 1.3 -0.2
v 0.1 1.4 -0.2
v 0.1 1.4 -0.3
v 0.1 1.5 0.3
v 0.1 1.5 0.2
v 0.1 1.5 -0.3
v 0.1 1.5 -0.6
v 0.1 1.6 0.2
v 0.1 1.6 0.1
v 0.1 1.6 -0.6
v 0.1 1.6 -0.7
v 0.1 1.7 0.1
v 0.1 1.7 -0.1
v 0.1 1.7 -0.6
v 0.1 1.7 -0.7
v 0.1 1.8 -0.1
v 0.1 1.8 -0.6
v 0.3 0.9 0.7
v 0.3 0.9 0.5
v 0.3 1 0.6
v 0.3 1 0.5
v 0.3 1.1 0.7
v 0.3 1.1 0.6
v 0.4 1 0.3
v 0.4 1 0.1
v 0.4 1.3 0.3
v 0.4 1.3 0.2
v 0.4 1.3 0.1
v 0.4 1.3 0
v 0.4 1.5 0.2
v 0.4 1.5 0.1
v 0.4 1.5 0
v 0.4 1.5 -0.1
v 0.4 1.6 0.1
v 0.4 1.6 -0.1
v -0.4 1 0.3
v -0.4 1 0.1
v -0.4 1.3 0.3
v -0.4 1.3 0.2
v -0.4 1.3 0.1
v -0.4 1.3 0
v -0.4 1.5 0.2
v -0.4 1.5 0.1
v -0.4 1.5 0
v -0.4 1.5 -0.1
v -0.4 1.6 0.1
v -0.4 1.6 -0.1
v -0.4 1.6 -0.2
v -0.4 1.7 -0.1
v -0.4 1.7 -0.2
v -0.3 0.9 0.7
v -0.3 0.9 0.5
v -0.3 1 0.6
v -0.3 1 0.5
v -0.3 1.1 0.7
v -0.3 1.1 0.6
v -0.1 1 0.4
v -0.1 1 0
v -0.1 1.1 0
v -0.1 1.1 -0.1
v -0.1 1.3 0.4
v -0.1 1.3 0.3
v -0.1 1.3 -0.1
v -0.1 1.3 -0.2
v -0.1 1.4 -0.2
v -0.1 1.4 -0.3
v -0.1 1.5 0.3
v -0.1 1.5 0.2
v -0.1 1.5 -0.3
v -0.1 1.5 -0.6
v -0.1 1.6 0.2
v -0.1 1.6 0.1
v -0.1 1.6 -0.6
v -0.1 1.6 -0.7
v -0.1 1.7 0.1
v -0.1 1.7 -0.1
v -0.1 1.7 -0.6
v -0.1 1.7 -0.7
v -0.1 1.8 -0.1
v -0.1 1.8 -0.6
v 0.2 1 0.3
v 0.2 1 0.1
v 0.2 1.3 0.3
v 0.2 1.3 0.2
v 0.2 1.3 0.1
v 0.2 1.3 0
v 0.2 1.5 0.2
v 0.2 1.5 0.1
v 0.2 1.5 0
v 0.2 1.5 -0.1
v 0.2 1.6 0.1
v 0.2 1.6 -0.1
v 0.5 0 0.5
v 0.5 0 -0.5
v 0.5 0.9 0.7
v 0.5 0.9 0.5
v 0.5 1 0.6
v 0.5 1 0.5
v 0.5 1 0.4
v 0.5 1 0
v 0.5 1 -0.5
v 0.5 1.1 0.7
v 0.5 1.1 0.6
v 0.5 1.1 0
v 0.5 1.1 -0.1
v 0.5 1.3 0.4
v 0.5 1.3 0.3
v 0.5 1.3 -0.1
v 0.5 1.3 -0.2
v 0.5 1.4 -0.2
v 0.5 1.4 -0.3
v 0.5 1.5 0.3
v 0.5 1.5 0.2
v 0.5 1.5 -0.3
v 0.5 1.5 -0.6
v 0.5 1.6 0.2
v 0.5 1.6 0.1
v 0.5 1.6 -0.6
v 0.5 1.6 -0.7
v 0.5 1.7 0.1
v 0.5 1.7 -0.1
v 0.5 1.7 -0.6
v 0.5 1.7 -0.7
v 0.5 1.8 -0.1
v 0.5 1.8 -0.6
v -0.5 0.9 0.7
v -0.5 1.1 0.7
v -0.3 0.9 0.7
v -0.3 1.1 0.7
v 0.3 0.9 0.7
v 0.3 1.1 0.7
v 0.5 0.9 0.7
v 0.5 1.1 0.7
v -0.5 0 0.5
v -0.5 0.9 0.5
v -0.4 0.2 0.5
v -0.4 0.4 0.5
v -0.4 0.6 0.5
v -0.4 0.8 0.5
v -0.3 0.9 0.5
v -0.3 1 0.5
v -0.2 0.2 0.5
v -0.2 0.4 0.5
v -0.2 0.6 0.5
v -0.2 0.8 0.5
v -0.1 0.1 0.5
v -0.1 0.3 0.5
v 0.1 0.1 0.5
v 0.1 0.3 0.5
v 0.2 0.2 0.5
v 0.2 0.4 0.5
v 0.2 0.6 0.5
v 0.2 0.8 0.5
v 0.3 0.9 0.5
v 0.3 1 0.5
v 0.4 0.2 0.5
v 0.4 0.4 0.5
v 0.4 0.6 0.5
v 0.4 0.8 0.5
v 0.5 0 0.5
v 0.5 0.9 0.5
v -0.5 1 0.4
v -0.5 1.3 0.4
v -0.1 1 0.4
v -0.1 1.3 0.4
v 0.1 1 0.4
v 0.1 1.3 0.4
v 0.5 1 0.4
v 0.5 1.3 0.4
v -0.5 1.3 0.3
v -0.5 1.5 0.3
v -0.1 1.3 0.3
v -0.1 1.5 0.3
v 0.1 1.3 0.3
v 0.1 1.5 0.3
v 0.5 1.3 0.3
v 0.5 1.5 0.3
v -0.5 1.5 0.2
v -0.5 1.6 0.2
v -0.1 1.5 0.2
v -0.1 1.6 0.2
v 0.1 1.5 0.2
v 0.1 1.6 0.2
v 0.5 1.5 0.2
v 0.5 1.6 0.2
v -0.5 1.6 0.1
v -0.5 1.7 0.1
v -0.4 1 0.1
v -0.4 1.3 0.1
v -0.2 1 0.1
v -0.2 1.3 0.1
v -0.1 1.6 0.1
v -0.1 1.7 0.1
v 0.1 1.6 0.1
v 0.1 1.7 0.1
v 0.2 1 0.1
v 0.2 1.3 0.1
v 0.4 1 0.1
v 0.4 1.3 0.1
v 0.5 1.6 0.1
v 0.5 1.7 0.1
v -0.4 1.3 0
v -0.4 1.5 0
v -0.2 1.3 0
v -0.2 1.5 0
v 0.2 1.3 0
v 0.2 1.5 0
v 0.4 1.3 0
v 0.4 1.5 0
v -0.5 1.7 -0.1
v -0.5 1.8 -0.1
v -0.4 1.5 -0.1
v -0.4 1.6 -0.1
v -0.2 1.5 -0.1
v -0.2 1.6 -0.1
v -0.1 1.7 -0.1
v -0.1 1.8 -0.1
v 0.1 1.7 -0.1
v 0.1 1.8 -0.1
v 0.2 1.5 -0.1
v 0.2 1.6 -0.1
v 0.4 1.5 -0.1
v 0.4 1.6 -0.1
v 0.5 1.7 -0.1
v 0.5 1.8 -0.1
v -0.4 1.6 -0.2
v -0.4 1.7 -0.2
v -0.2 1.6 -0.2
v -0.2 1.7 -0.2
v -0.5 1 0.6
v -0.5 1.1 0.6
v -0.3 1 0.6
v -0.3 1.1 0.6
v 0.3 1 0.6
v 0.3 1.1 0.6
v 0.5 1 0.6
v 0.5 1.1 0.6
v -0.4 1 0.3
v -0.4 1.3 0.3
v -0.2 1 0.3
v -0.2 1.3 0.3
v 0.2 1 0.3
v 0.2 1.3 0.3
v 0.4 1 0.3
v 0.4 1.3 0.3
v -0.4 1.3 0.2
v -0.4 1.5 0.2
v -0.2 1.3 0.2
v -0.2 1.5 0.2
v 0.2 1.3 0.2
v 0.2 1.5 0.2
v 0.4 1.3 0.2
v 0.4 1.5 0.2
v -0.4 1.5 0.1
v -0.4 1.6 0.1
v -0.2 1.5 0.1
v -0.2 1.6 0.1
v 0.2 1.5 0.1
v 0.2 1.6 0.1
v 0.4 1.5 0.1
v 0.4 1.6 0.1
v -0.5 1 0
v -0.5 1.1 0
v -0.1 1 0
v -0.1 1.1 0
v 0.1 1 0
v 0.1 1.1 0
v 0.5 1 0
v 0.5 1.1 0
v -0.5 1.1 -0.1
v -0.5 1.3 -0.1
v -0.4 1.6 -0.1
v -0.4 1.7 -0.1
v -0.2 1.6 -0.1
v -0.2 1.7 -0.1
v -0.1 1.1 -0.1
v -0.1 1.3 -0.1
v 0.1 1.1 -0.1
v 0.1 1.3 -0.1
v 0.5 1.1 -0.1
v 0.5 1.3 -0.1
v -0.5 1.3 -0.2
v -0.5 1.4 -0.2
v -0.1 1.3 -0.2
v -0.1 1.4 -0.2
v 0.1 1.3 -0.2
v 0.1 1.4 -0.2
v 0.5 1.3 -0.2
v 0.5 1.4 -0.2
v -0.5 1.4 -0.3
v -0.5 1.5 -0.3
v -0.1 1.4 -0.3
v -0.1 1.5 -0.3
v 0.1 1.4 -0.3
v 0.1 1.5 -0.3
v 0.5 1.4 -0.3
v 0.5 1.5 -0.3
v -0.5 0 -0.5
v -0.5 1 -0.5
v 0.5 0 -0.5
v 0.5 1 -0.5
v -0.5 1.5 -0.6
v -0.5 1.6 -0.6
v -0.5 1.7 -0.6
v -0.5 1.8 -0.6
v -0.1 1.5 -0.6
v -0.1 1.6 -0.6
v -0.1 1.7 -0.6
v -0.1 1.8 -0.6
v 0.1 1.5 -0.6
v 0.1 1.6 -0.6
v 0.1 1.7 -0.6
v 0.1 1.8 -0.6
v 0.5 1.5 -0.6
v 0.5 1.6 -0.6
v 0.5 1.7 -0.6
v 0.5 1.8 -0.6
v -0.5 1.6 -0.7
v -0.5 1.7 -0.7
v -0.1 1.6 -0.7
v -0.1 1.7 -0.7
v 0.1 1.6 -0.7
v 0.1 1.7 -0.7
v 0.5 1.6 -0.7
v 0.5 1.7 -0.7
v -0.5 0 0.5
v 0.5 0 0.5
v -0.5 0 -0.5
v 0.5 0 -0.5
v -0.5 0.9 0.7
v -0.3 0.9 0.7
v 0.3 0.9 0.7
v 0.5 0.9 0.7
v -0.5 0.9 0.5
v -0.3 0.9 0.5
v 0.3 0.9 0.5
v 0.5 0.9 0.5
v -0.5 1.1 0
v -0.1 1.1 0
v 0.1 1.1 0
v 0.5 1.1 0
v -0.5 1.1 -0.1
v -0.1 1.1 -0.1
v 0.1 1.1 -0.1
v 0.5 1.1 -0.1
v -0.4 1.3 0.3
v -0.2 1.3 0.3
v 0.2 1.3 0.3
v 0.4 1.3 0.3
v -0.4 1.3 0.2
v -0.2 1.3 0.2
v 0.2 1.3 0.2
v 0.4 1.3 0.2
v -0.5 1.3 -0.1
v -0.1 1.3 -0.1
v 0.1 1.3 -0.1
v 0.5 1.3 -0.1
v -0.5 1.3 -0.2
v -0.1 1.3 -0.2
v 0.1 1.3 -0.2
v 0.5 1.3 -0.2
v -0.5 1.4 -0.2
v -0.1 1.4 -0.2
v 0.1 1.4 -0.2
v 0.5 1.4 -0.2
v -0.5 1.4 -0.3
v -0.1 1.4 -0.3
v 0.1 1.4 -0.3
v 0.5 1.4 -0.3
v -0.4 1.5 0.2
v -0.2 1.5 0.2
v 0.2 1.5 0.2
v 0.4 1.5 0.2
v -0.4 1.5 0.1
v -0.2 1.5 0.1
v 0.2 1.5 0.1
v 0.4 1.5 0.1
v -0.5 1.5 -0.3
v -0.1 1.5 -0.3
v 0.1 1.5 -0.3
v 0.5 1.5 -0.3
v -0.5 1.5 -0.6
v -0.1 1.5 -0.6
v 0.1 1.5 -0.6
v 0.5 1.5 -0.6
v -0.4 1.6 0.1
v -0.2 1.6 0.1
v 0.2 1.6 0.1
v 0.4 1.6 0.1
v -0.4 1.6 -0.1
v -0.2 1.6 -0.1
v 0.2 1.6 -0.1
v 0.4 1.6 -0.1
v -0.5 1.6 -0.6
v -0.1 1.6 -0.6
v 0.1 1.6 -0.6
v 0.5 1.6 -0.6
v -0.5 1.6 -0.7
v -0.1 1.6 -0.7
v 0.1 1.6 -0.7
v 0.5 1.6 -0.7
v -0.4 1.7 -0.1
v -0.2 1.7 -0.1
v -0.4 1.7 -0.2
v -0.2 1.7 -0.2
v -0.5 1 0.6
v -0.3 1 0.6
v 0.3 1 0.6
v 0.5 1 0.6
v -0.5 1 0.5
v -0.3 1 0.5
v 0.3 1 0.5
v 0.5 1 0.5
v -0.5 1 0.4
v -0.1 1 0.4
v 0.1 1 0.4
v 0.5 1 0.4
v -0.4 1 0.3
v -0.2 1 0.3
v 0.2 1 0.3
v 0.4 1 0.3
v -0.4 1 0.1
v -0.2 1 0.1
v 0.2 1 0.1
v 0.4 1 0.1
v -0.5 1 0
v -0.1 1 0
v 0.1 1 0
v 0.5 1 0
v -0.5 1 -0.5
v 0.5 1 -0.5
v -0.5 1.1 0.7
v -0.3 1.1 0.7
v 0.3 1.1 0.7
v 0.5 1.1 0.7
v -0.5 1.1 0.6
v -0.3 1.1 0.6
v 0.3 1.1 0.6
v 0.5 1.1 0.6
v -0.5 1.3 0.4
v -0.1 1.3 0.4
v 0.1 1.3 0.4
v 0.5 1.3 0.4
v -0.5 1.3 0.3
v -0.1 1.3 0.3
v 0.1 1.3 0.3
v 0.5 1.3 0.3
v -0.4 1.3 0.1
v -0.2 1.3 0.1
v 0.2 1.3 0.1
v 0.4 1.3 0.1
v -0.4 1.3 0
v -0.2 1.3 0
v 0.2 1.3 0
v 0.4 1.3 0
v -0.5 1.5 0.3
v -0.1 1.5 0.3
v 0.1 1.5 0.3
v 0.5 1.5 0.3
v -0.5 1.5 0.2
v -0.1 1.5 0.2
v 0.1 1.5 0.2
v 0.5 1.5 0.2
v -0.4 1.5 0
v -0.2 1.5 0
v 0.2 1.5 0
v 0.4 1.5 0
v -0.4 1.5 -0.1
v -0.2 1.5 -0.1
v 0.2 1.5 -0.1
v 0.4 1.5 -0.1
v -0.5 1.6 0.2
v -0.1 1.6 0.2
v 0.1 1.6 0.2
v 0.5 1.6 0.2
v -0.5 1.6 0.1
v -0.1 1.6 0.1
v 0.1 1.6 0.1
v 0.5 1.6 0.1
v -0.4 1.6 -0.1
v -0.2 1.6 -0.1
v -0.4 1.6 -0.2
v -0.2 1.6 -0.2
v -0.5 1.7 0.1
v -0.1 1.7 0.1
v 0.1 1.7 0.1
v 0.5 1.7 0.1
v -0.5 1.7 -0.1
v -0.1 1.7 -0.1
v 0.1 1.7 -0.1
v 0.5 1.7 -0.1
v -0.5 1.7 -0.6
v -0.1 1.7 -0.6
v 0.1 1.7 -0.6
v 0.5 1.7 -0.6
v -0.5 1.7 -0.7
v -0.1 1.7 -0.7
v 0.1 1.7 -0.7
v 0.5 1.7 -0.7
v -0.5 1.8 -0.1
v -0.1 1.8 -0.1
v 0.1 1.8 -0.1
v 0.5 1.8 -0.1
v -0.5 1.8 -0.6
v -0.1 1.8 -0.6
v 0.1 1.8 -0.6
v 0.5 1.8 -0.6

# faces
f 4/2/1 2/2/1 1/2/1
f 5/3/1 4/3/1 3/3/1
f 6/2/1 2/2/1 4/2/1
f 6/3/1 4/3/1 5/3/1
f 7/2/1 2/2/1 6/2/1
f 8/2/1 2/2/1 7/2/1
f 9/2/1 2/2/1 8/2/1
f 10/3/1 5/3/1 3/3/1
f 11/3/1 5/3/1 10/3/1
f 12/3/1 8/3/1 7/3/1
f 14/3/1 13/3/1 12/3/1
f 14/3/1 12/3/1 7/3/1
f 15/3/1 13/3/1 14/3/1
f 16/3/1 13/3/1 15/3/1
f 18/3/1 17/3/1 16/3/1
f 18/3/1 16/3/1 15/3/1
f 20/3/1 18/3/1 15/3/1
f 20/3/1 19/3/1 18/3/1
f 21/3/1 19/3/1 20/3/1
f 22/3/1 19/3/1 21/3/1
f 24/3/1 22/3/1 21/3/1
f 24/3/1 23/3/1 22/3/1
f 25/3/1 23/3/1 24/3/1
f 26/3/1 23/3/1 25/3/1
f 28/3/1 27/3/1 26/3/1
f 28/3/1 26/3/1 25/3/1
f 29/3/1 27/3/1 28/3/1
f 30/3/1 27/3/1 29/3/1
f 31/3/1 27/3/1 30/3/1
f 32/3/1 30/3/1 29/3/1
f 33/3/1 30/3/1 32/3/1
f 36/3/1 35/3/1 34/3/1
f 37/3/1 35/3/1 36/3/1
f 38/3/1 35/3/1 37/3/1
f 40/3/1 39/3/1 38/3/1
f 40/3/1 38/3/1 37/3/1
f 41/3/1 39/3/1 40/3/1
f 42/3/1 39/3/1 41/3/1
f 44/3/1 43/3/1 42/3/1
f 44/3/1 42/3/1 41/3/1
f 45/3/1 43/3/1 44/3/1
f 47/3/1 46/3/1 45/3/1
f 48/3/1 46/3/1 47/3/1
f 51/3/1 50/3/1 49/3/1
f 53/3/1 51/3/1 49/3/1
f 53/3/1 52/3/1 51/3/1
f 54/3/1 52/3/1 53/3/1
f 55/3/1 52/3/1 54/3/1
f 57/3/1 56/3/1 55/3/1
f 57/3/1 55/3/1 54/3/1
f 59/3/1 57/3/1 54/3/1
f 59/3/1 58/3/1 57/3/1
f 60/3/1 58/3/1 59/3/1
f 61/3/1 58/3/1 60/3/1
f 63/3/1 62/3/1 61/3/1
f 63/3/1 61/3/1 60/3/1
f 64/3/1 62/3/1 63/3/1
f 65/3/1 62/3/1 64/3/1
f 67/3/1 66/3/1 65/3/1
f 67/3/1 65/3/1 64/3/1
f 68/3/1 66/3/1 67/3/1
f 69/3/1 66/3/1 68/3/1
f 70/3/1 66/3/1 69/3/1
f 71/3/1 69/3/1 68/3/1
f 72/3/1 69/3/1 71/3/1
f 75/3/1 74/3/1 73/3/1
f 76/3/1 74/3/1 75/3/1
f 77/3/1 75/3/1 73/3/1
f 78/3/1 75/3/1 77/3/1
f 81/3/1 80/3/1 79/3/1
f 82/3/1 80/3/1 81/3/1
f 83/3/1 80/3/1 82/3/1
f 85/3/1 84/3/1 83/3/1
f 85/3/1 83/3/1 82/3/1
f 86/3/1 84/3/1 85/3/1
f 87/3/1 84/3/1 86/3/1
f 89/3/1 88/3/1 87/3/1
f 89/3/1 87/3/1 86/3/1
f 90/3/1 88/3/1 89/3/1
f 91/3/2 92/3/2 93/3/2
f 93/3/2 92/3/2 94/3/2
f 94/3/2 92/3/2 95/3/2
f 95/3/2 96/3/2 97/3/2
f 94/3/2 95/3/2 97/3/2
f 97/3/2 96/3/2 98/3/2
f 98/3/2 96/3/2 99/3/2
f 99/3/2 100/3/2 101/3/2
f 98/3/2 99/3/2 101/3/2
f 101/3/2 100/3/2 102/3/2
f 102/3/2 103/3/2 104/3/2
f 104/3/2 103/3/2 105/3/2
f 106/3/2 107/3/2 108/3/2
f 108/3/2 107/3/2 109/3/2
f 106/3/2 108/3/2 110/3/2
f 110/3/2 108/3/2 111/3/2
f 112/3/2 113/3/2 114/3/2
f 112/3/2 114/3/2 116/3/2
f 114/3/2 115/3/2 116/3/2
f 116/3/2 115/3/2 117/3/2
f 117/3/2 115/3/2 118/3/2
f 118/3/2 119/3/2 120/3/2
f 117/3/2 118/3/2 120/3/2
f 117/3/2 120/3/2 122/3/2
f 120/3/2 121/3/2 122/3/2
f 122/3/2 121/3/2 123/3/2
f 123/3/2 121/3/2 124/3/2
f 124/3/2 125/3/2 126/3/2
f 123/3/2 124/3/2 126/3/2
f 126/3/2 125/3/2 127/3/2
f 127/3/2 125/3/2 128/3/2
f 128/3/2 129/3/2 130/3/2
f 127/3/2 128/3/2 130/3/2
f 130/3/2 129/3/2 131/3/2
f 131/3/2 129/3/2 132/3/2
f 132/3/2 129/3/2 133/3/2
f 131/3/2 132/3/2 134/3/2
f 134/3/2 132/3/2 135/3/2
f 136/3/2 137/3/2 138/3/2
f 138/3/2 137/3/2 139/3/2
f 139/3/2 137/3/2 140/3/2
f 140/3/2 141/3/2 142/3/2
f 139/3/2 140/3/2 142/3/2
f 142/3/2 141/3/2 143/3/2
f 143/3/2 141/3/2 144/3/2
f 144/3/2 145/3/2 146/3/2
f 143/3/2 144/3/2 146/3/2
f 146/3/2 145/3/2 147/3/2
f 148/2/2 149/2/2 151/2/2
f 150/3/2 151/3/2 152/3/2
f 151/2/2 149/2/2 153/2/2
f 152/3/2 151/3/2 153/3/2
f 153/2/2 149/2/2 154/2/2
f 154/2/2 149/2/2 155/2/2
f 155/2/2 149/2/2 156/2/2
f 150/3/2 152/3/2 157/3/2
f 157/3/2 152/3/2 158/3/2
f 154/3/2 155/3/2 159/3/2
f 159/3/2 160/3/2 161/3/2
f 154/3/2 159/3/2 161/3/2
f 161/3/2 160/3/2 162/3/2
f 162/3/2 160/3/2 163/3/2
f 163/3/2 164/3/2 165/3/2
f 162/3/2 163/3/2 165/3/2
f 162/3/2 165/3/2 167/3/2
f 165/3/2 166/3/2 167/3/2
f 167/3/2 166/3/2 168/3/2
f 168/3/2 166/3/2 169/3/2
f 168/3/2 169/3/2 171/3/2
f 169/3/2 170/3/2 171/3/2
f 171/3/2 170/3/2 172/3/2
f 172/3/2 170/3/2 173/3/2
f 173/3/2 174/3/2 175/3/2
f 172/3/2 173/3/2 175/3/2
f 175/3/2 174/3/2 176/3/2
f 176/3/2 174/3/2 177/3/2
f 177/3/2 174/3/2 178/3/2
f 176/3/2 177/3/2 179/3/2
f 179/3/2 177/3/2 180/3/2
f 183/3/3 182/3/3 181/3/3
f 184/3/3 182/3/3 183/3/3
f 187/3/3 186/3/3 185/3/3
f 188/3/3 186/3/3 187/3/3
f 191/2/3 190/2/3 189/2/3
f 192/2/3 190/2/3 191/2/3
f 193/2/3 190/2/3 192/2/3
f 194/2/3 190/2/3 193/2/3
f 195/2/3 190/2/3 194/2/3
f 197/2/3 191/2/3 189/2/3
f 197/1/3 192/1/3 191/1/3
f 198/2/3 193/2/3 192/2/3
f 198/1/3 192/1/3 197/1/3
f 199/4/3 194/4/3 193/4/3
f 199/2/3 193/2/3 198/2/3
f 200/2/3 196/2/3 195/2/3
f 200/4/3 194/4/3 199/4/3
f 200/2/3 195/2/3 194/2/3
f 201/2/3 199/2/3 198/2/3
f 201/2/3 198/2/3 197/2/3
f 201/2/3 200/2/3 199/2/3
f 201/2/3 197/2/3 189/2/3
f 202/2/3 200/2/3 201/2/3
f 203/2/3 201/2/3 189/2/3
f 203/4/3 202/4/3 201/4/3
f 204/2/3 200/2/3 202/2/3
f 204/4/3 202/4/3 203/4/3
f 205/2/3 204/2/3 203/2/3
f 206/2/3 200/2/3 204/2/3
f 206/2/3 204/2/3 205/2/3
f 207/2/3 200/2/3 206/2/3
f 208/2/3 196/2/3 200/2/3
f 208/2/3 200/2/3 207/2/3
f 209/2/3 196/2/3 208/2/3
f 210/2/3 196/2/3 209/2/3
f 211/2/3 205/2/3 203/2/3
f 211/1/3 206/1/3 205/1/3
f 212/2/3 207/2/3 206/2/3
f 212/1/3 206/1/3 211/1/3
f 213/4/3 208/4/3 207/4/3
f 213/2/3 207/2/3 212/2/3
f 214/2/3 209/2/3 208/2/3
f 214/4/3 208/4/3 213/4/3
f 215/2/3 211/2/3 203/2/3
f 215/2/3 203/2/3 189/2/3
f 215/2/3 214/2/3 213/2/3
f 215/2/3 212/2/3 211/2/3
f 215/2/3 213/2/3 212/2/3
f 216/2/3 209/2/3 214/2/3
f 216/2/3 214/2/3 215/2/3
f 219/3/3 218/3/3 217/3/3
f 220/3/3 218/3/3 219/3/3
f 223/3/3 222/3/3 221/3/3
f 224/3/3 222/3/3 223/3/3
f 227/3/3 226/3/3 225/3/3
f 228/3/3 226/3/3 227/3/3
f 231/3/3 230/3/3 229/3/3
f 232/3/3 230/3/3 231/3/3
f 235/3/3 234/3/3 233/3/3
f 236/3/3 234/3/3 235/3/3
f 239/3/3 238/3/3 237/3/3
f 240/3/3 238/3/3 239/3/3
f 245/3/3 244/3/3 243/3/3
f 246/3/3 244/3/3 245/3/3
f 247/3/3 242/3/3 241/3/3
f 248/3/3 242/3/3 247/3/3
f 253/3/3 252/3/3 251/3/3
f 254/3/3 252/3/3 253/3/3
f 255/3/3 250/3/3 249/3/3
f 256/3/3 250/3/3 255/3/3
f 259/3/3 258/3/3 257/3/3
f 260/3/3 258/3/3 259/3/3
f 263/3/3 262/3/3 261/3/3
f 264/3/3 262/3/3 263/3/3
f 269/3/3 268/3/3 267/3/3
f 270/3/3 268/3/3 269/3/3
f 271/3/3 266/3/3 265/3/3
f 272/3/3 266/3/3 271/3/3
f 277/3/3 276/3/3 275/3/3
f 278/3/3 276/3/3 277/3/3
f 279/3/3 274/3/3 273/3/3
f 280/3/3 274/3/3 279/3/3
f 283/3/3 282/3/3 281/3/3
f 284/3/3 282/3/3 283/3/3
f 285/3/4 286/3/4 287/3/4
f 287/3/4 286/3/4 288/3/4
f 289/3/4 290/3/4 291/3/4
f 291/3/4 290/3/4 292/3/4
f 293/3/4 294/3/4 295/3/4
f 295/3/4 294/3/4 296/3/4
f 297/3/4 298/3/4 299/3/4
f 299/3/4 298/3/4 300/3/4
f 301/3/4 302/3/4 303/3/4
f 303/3/4 302/3/4 304/3/4
f 305/3/4 306/3/4 307/3/4
f 307/3/4 306/3/4 308/3/4
f 309/3/4 310/3/4 311/3/4
f 311/3/4 310/3/4 312/3/4
f 313/3/4 314/3/4 315/3/4
f 315/3/4 314/3/4 316/3/4
f 317/3/4 318/3/4 319/3/4
f 319/3/4 318/3/4 320/3/4
f 321/3/4 322/3/4 323/3/4
f 323/3/4 322/3/4 324/3/4
f 327/3/4 328/3/4 329/3/4
f 329/3/4 328/3/4 330/3/4
f 325/3/4 326/3/4 331/3/4
f 331/3/4 326/3/4 332/3/4
f 333/3/4 334/3/4 335/3/4
f 335/3/4 334/3/4 336/3/4
f 337/3/4 338/3/4 339/3/4
f 339/3/4 338/3/4 340/3/4
f 341/3/4 342/3/4 343/3/4
f 343/3/4 342/3/4 344/3/4
f 345/3/4 346/3/4 347/3/4
f 347/3/4 346/3/4 348/3/4
f 349/3/4 350/3/4 351/3/4
f 351/3/4 350/3/4 352/3/4
f 353/2/4 354/2/4 355/2/4
f 355/2/4 354/2/4 356/2/4
f 357/3/4 358/3/4 361/3/4
f 361/3/4 358/3/4 362/3/4
f 359/3/4 360/3/4 363/3/4
f 363/3/4 360/3/4 364/3/4
f 365/3/4 366/3/4 369/3/4
f 369/3/4 366/3/4 370/3/4
f 367/3/4 368/3/4 371/3/4
f 371/3/4 368/3/4 372/3/4
f 373/3/4 374/3/4 375/3/4
f 375/3/4 374/3/4 376/3/4
f 377/3/4 378/3/4 379/3/4
f 379/3/4 378/3/4 380/3/4
f 383/2/5 382/2/5 381/2/5
f 384/2/5 382/2/5 383/2/5
f 389/3/5 386/3/5 385/3/5
f 390/3/5 386/3/5 389/3/5
f 391/3/5 388/3/5 387/3/5
f 392/3/5 388/3/5 391/3/5
f 397/3/5 394/3/5 393/3/5
f 398/3/5 394/3/5 397/3/5
f 399/3/5 396/3/5 395/3/5
f 400/3/5 396/3/5 399/3/5
f 405/3/5 402/3/5 401/3/5
f 406/3/5 402/3/5 405/3/5
f 407/3/5 404/3/5 403/3/5
f 408/3/5 404/3/5 407/3/5
f 413/3/5 410/3/5 409/3/5
f 414/3/5 410/3/5 413/3/5
f 415/3/5 412/3/5 411/3/5
f 416/3/5 412/3/5 415/3/5
f 421/3/5 418/3/5 417/3/5
f 422/3/5 418/3/5 421/3/5
f 423/3/5 420/3/5 419/3/5
f 424/3/5 420/3/5 423/3/5
f 429/3/5 426/3/5 425/3/5
f 430/3/5 426/3/5 429/3/5
f 431/3/5 428/3/5 427/3/5
f 432/3/5 428/3/5 431/3/5
f 437/3/5 434/3/5 433/3/5
f 438/3/5 434/3/5 437/3/5
f 439/3/5 436/3/5 435/3/5
f 440/3/5 436/3/5 439/3/5
f 445/3/5 442/3/5 441/3/5
f 446/3/5 442/3/5 445/3/5
f 447/3/5 444/3/5 443/3/5
f 448/3/5 444/3/5 447/3/5
f 453/3/5 450/3/5 449/3/5
f 454/3/5 450/3/5 453/3/5
f 455/3/5 452/3/5 451/3/5
f 456/3/5 452/3/5 455/3/5
f 459/3/5 458/3/5 457/3/5
f 460/3/5 458/3/5 459/3/5
f 461/3/6 462/3/6 465/3/6
f 465/3/6 462/3/6 466/3/6
f 463/3/6 464/3/6 467/3/6
f 467/3/6 464/3/6 468/3/6
f 465/2/6 466/2/6 469/2/6
f 466/2/6 467/2/6 469/2/6
f 467/2/6 468/2/6 469/2/6
f 469/2/6 468/2/6 470/2/6
f 470/2/6 468/2/6 471/2/6
f 471/2/6 468/2/6 472/2/6
f 473/2/6 474/2/6 477/2/6
f 477/2/6 474/2/6 478/2/6
f 475/2/6 476/2/6 479/2/6
f 479/2/6 476/2/6 480/2/6
f 470/2/6 471/2/6 482/2/6
f 482/2/6 471/2/6 483/2/6
f 482/2/6 483/2/6 485/2/6
f 483/2/6 484/2/6 485/2/6
f 481/2/6 482/2/6 485/2/6
f 485/2/6 484/2/6 486/2/6
f 487/3/6 488/3/6 491/3/6
f 491/3/6 488/3/6 492/3/6
f 489/3/6 490/3/6 493/3/6
f 493/3/6 490/3/6 494/3/6
f 495/3/6 496/3/6 499/3/6
f 499/3/6 496/3/6 500/3/6
f 497/3/6 498/3/6 501/3/6
f 501/3/6 498/3/6 502/3/6
f 503/3/6 504/3/6 507/3/6
f 507/3/6 504/3/6 508/3/6
f 505/3/6 506/3/6 509/3/6
f 509/3/6 506/3/6 510/3/6
f 511/3/6 512/3/6 515/3/6
f 515/3/6 512/3/6 516/3/6
f 513/3/6 514/3/6 517/3/6
f 517/3/6 514/3/6 518/3/6
f 519/3/6 520/3/6 523/3/6
f 523/3/6 520/3/6 524/3/6
f 521/3/6 522/3/6 525/3/6
f 525/3/6 522/3/6 526/3/6
f 527/3/6 528/3/6 531/3/6
f 531/3/6 528/3/6 532/3/6
f 529/3/6 530/3/6 533/3/6
f 533/3/6 530/3/6 534/3/6
f 535/3/6 536/3/6 537/3/6
f 537/3/6 536/3/6 538/3/6
f 539/3/6 540/3/6 543/3/6
f 543/3/6 540/3/6 544/3/6
f 541/3/6 542/3/6 545/3/6
f 545/3/6 542/3/6 546/3/6
f 547/3/6 548/3/6 551/3/6
f 551/3/6 548/3/6 552/3/6
f 549/3/6 550/3/6 553/3/6
f 553/3/6 550/3/6 554/3/6
f 555/3/6 556/3/6 559/3/6
f 559/3/6 556/3/6 560/3/6
f 557/3/6 558/3/6 561/3/6
f 561/3/6 558/3/6 562/3/6
