# MagicaVoxel @ Ephtracy

# group
o 

# material
mtllib Finishline.mtl
usemtl palette

# normals
vn -1 0 0
vn 1 0 0
vn 0 0 1
vn 0 0 -1
vn 0 -1 0
vn 0 1 0

# texcoords
vt 0.873047 0.5
vt 0.958984 0.5
vt 0.994141 0.5

# verts
v -0.3 0 0.1
v -0.3 0 0
v -0.3 0.3 0.1
v -0.3 0.3 0
v -0.3 0.4 0.1
v -0.3 0.4 0
v -0.3 0.5 0.1
v -0.3 0.5 0
v 0.1 0 0.1
v 0.1 0 0
v 0.1 0.3 0.1
v 0.1 0.3 0
v -0.2 0 0.1
v -0.2 0 0
v -0.2 0.3 0.1
v -0.2 0.3 0
v 0.2 0 0.1
v 0.2 0 0
v 0.2 0.3 0.1
v 0.2 0.3 0
v 0.2 0.4 0.1
v 0.2 0.4 0
v 0.2 0.5 0.1
v 0.2 0.5 0
v -0.3 0 0.1
v -0.3 0.3 0.1
v -0.3 0.4 0.1
v -0.3 0.5 0.1
v -0.2 0 0.1
v -0.2 0.3 0.1
v -0.2 0.4 0.1
v -0.2 0.5 0.1
v -0.1 0.3 0.1
v -0.1 0.4 0.1
v -0.1 0.5 0.1
v 0 0.3 0.1
v 0 0.4 0.1
v 0 0.5 0.1
v 0.1 0 0.1
v 0.1 0.3 0.1
v 0.1 0.4 0.1
v 0.1 0.5 0.1
v 0.2 0 0.1
v 0.2 0.3 0.1
v 0.2 0.4 0.1
v 0.2 0.5 0.1
v -0.3 0 0
v -0.3 0.3 0
v -0.3 0.4 0
v -0.3 0.5 0
v -0.2 0 0
v -0.2 0.3 0
v -0.2 0.4 0
v -0.2 0.5 0
v -0.1 0.3 0
v -0.1 0.4 0
v -0.1 0.5 0
v 0 0.3 0
v 0 0.4 0
v 0 0.5 0
v 0.1 0 0
v 0.1 0.3 0
v 0.1 0.4 0
v 0.1 0.5 0
v 0.2 0 0
v 0.2 0.3 0
v 0.2 0.4 0
v 0.2 0.5 0
v -0.3 0 0.1
v -0.2 0 0.1
v 0.1 0 0.1
v 0.2 0 0.1
v -0.3 0 0
v -0.2 0 0
v 0.1 0 0
v 0.2 0 0
v -0.2 0.3 0.1
v -0.1 0.3 0.1
v 0 0.3 0.1
v 0.1 0.3 0.1
v -0.2 0.3 0
v -0.1 0.3 0
v 0 0.3 0
v 0.1 0.3 0
v -0.3 0.5 0.1
v -0.2 0.5 0.1
v -0.1 0.5 0.1
v 0 0.5 0.1
v 0.1 0.5 0.1
v 0.2 0.5 0.1
v -0.3 0.5 0
v -0.2 0.5 0
v -0.1 0.5 0
v 0 0.5 0
v 0.1 0.5 0
v 0.2 0.5 0

# faces
f 3/1/1 2/1/1 1/1/1
f 4/1/1 2/1/1 3/1/1
f 5/3/1 4/3/1 3/3/1
f 6/3/1 4/3/1 5/3/1
f 7/2/1 6/2/1 5/2/1
f 8/2/1 6/2/1 7/2/1
f 11/1/1 10/1/1 9/1/1
f 12/1/1 10/1/1 11/1/1
f 13/1/2 14/1/2 15/1/2
f 15/1/2 14/1/2 16/1/2
f 17/1/2 18/1/2 19/1/2
f 19/1/2 18/1/2 20/1/2
f 19/3/2 20/3/2 21/3/2
f 21/3/2 20/3/2 22/3/2
f 21/2/2 22/2/2 23/2/2
f 23/2/2 22/2/2 24/2/2
f 29/1/3 26/1/3 25/1/3
f 30/3/3 27/3/3 26/3/3
f 30/1/3 26/1/3 29/1/3
f 31/2/3 28/2/3 27/2/3
f 31/3/3 27/3/3 30/3/3
f 32/2/3 28/2/3 31/2/3
f 33/2/3 31/2/3 30/2/3
f 34/3/3 32/3/3 31/3/3
f 34/2/3 31/2/3 33/2/3
f 35/3/3 32/3/3 34/3/3
f 36/3/3 34/3/3 33/3/3
f 37/2/3 35/2/3 34/2/3
f 37/3/3 34/3/3 36/3/3
f 38/2/3 35/2/3 37/2/3
f 40/2/3 37/2/3 36/2/3
f 41/3/3 38/3/3 37/3/3
f 41/2/3 37/2/3 40/2/3
f 42/3/3 38/3/3 41/3/3
f 43/1/3 40/1/3 39/1/3
f 44/3/3 41/3/3 40/3/3
f 44/1/3 40/1/3 43/1/3
f 45/2/3 42/2/3 41/2/3
f 45/3/3 41/3/3 44/3/3
f 46/2/3 42/2/3 45/2/3
f 47/1/4 48/1/4 51/1/4
f 48/3/4 49/3/4 52/3/4
f 51/1/4 48/1/4 52/1/4
f 49/2/4 50/2/4 53/2/4
f 52/3/4 49/3/4 53/3/4
f 53/2/4 50/2/4 54/2/4
f 52/2/4 53/2/4 55/2/4
f 53/3/4 54/3/4 56/3/4
f 55/2/4 53/2/4 56/2/4
f 56/3/4 54/3/4 57/3/4
f 55/3/4 56/3/4 58/3/4
f 56/2/4 57/2/4 59/2/4
f 58/3/4 56/3/4 59/3/4
f 59/2/4 57/2/4 60/2/4
f 58/2/4 59/2/4 62/2/4
f 59/3/4 60/3/4 63/3/4
f 62/2/4 59/2/4 63/2/4
f 63/3/4 60/3/4 64/3/4
f 61/1/4 62/1/4 65/1/4
f 62/3/4 63/3/4 66/3/4
f 65/1/4 62/1/4 66/1/4
f 63/2/4 64/2/4 67/2/4
f 66/3/4 63/3/4 67/3/4
f 67/2/4 64/2/4 68/2/4
f 73/1/5 70/1/5 69/1/5
f 74/1/5 70/1/5 73/1/5
f 75/1/5 72/1/5 71/1/5
f 76/1/5 72/1/5 75/1/5
f 81/2/5 78/2/5 77/2/5
f 82/3/5 79/3/5 78/3/5
f 82/2/5 78/2/5 81/2/5
f 83/2/5 80/2/5 79/2/5
f 83/3/5 79/3/5 82/3/5
f 84/2/5 80/2/5 83/2/5
f 85/2/6 86/2/6 91/2/6
f 86/3/6 87/3/6 92/3/6
f 91/2/6 86/2/6 92/2/6
f 87/2/6 88/2/6 93/2/6
f 92/3/6 87/3/6 93/3/6
f 88/3/6 89/3/6 94/3/6
f 93/2/6 88/2/6 94/2/6
f 89/2/6 90/2/6 95/2/6
f 94/3/6 89/3/6 95/3/6
f 95/2/6 90/2/6 96/2/6
